<svg width="25" height="25" viewBox="0 0 25 25" fill="none" xmlns="http://www.w3.org/2000/svg">
<g clip-path="url(#clip0)">
<path d="M21.6729 15.3848L6.90721 24.4866C5.83895 25.1443 4.54739 25.1716 3.45223 24.5598C2.35706 23.948 1.70325 22.8337 1.70325 21.5792V3.45851C1.70325 1.56173 3.23157 0.0103168 5.10999 6.29425e-05C5.11512 6.29425e-05 5.12025 1.33514e-05 5.12528 1.33514e-05C5.71229 6.10352e-05 6.32401 0.184046 6.89535 0.532681C7.35497 0.813101 7.50023 1.413 7.21981 1.87258C6.93939 2.33224 6.33939 2.47746 5.87992 2.19704C5.61268 2.03405 5.35169 1.94972 5.12049 1.94977C4.41175 1.95363 3.65291 2.56076 3.65291 3.45847V21.5792C3.65291 22.1173 3.93338 22.5952 4.40311 22.8577C4.87288 23.1201 5.42684 23.1084 5.88451 22.8266L20.6502 13.7248C21.094 13.4515 21.348 12.9959 21.3469 12.4747C21.3458 11.9536 21.09 11.499 20.6438 11.2267L9.96811 4.69016C9.50893 4.409 9.36459 3.80886 9.64574 3.34973C9.92685 2.89054 10.527 2.74621 10.9862 3.02736L21.6606 9.56311C22.6826 10.1866 23.2942 11.2735 23.2967 12.4708C23.2991 13.668 22.6919 14.7575 21.6729 15.3848Z" fill="white"/>
</g>
<defs>
<clipPath id="clip0">
<rect width="25" height="25" fill="white" transform="matrix(1 0 0 -1 0 25)"/>
</clipPath>
</defs>
</svg>
