<svg width="25" height="25" viewBox="0 0 25 25" fill="none" xmlns="http://www.w3.org/2000/svg">
<path d="M10.0586 7.17773C9.5192 7.17773 9.08203 7.6149 9.08203 8.1543V16.9434C9.08203 17.4828 9.5192 17.9199 10.0586 17.9199C10.598 17.9199 11.0352 17.4828 11.0352 16.9434V8.1543C11.0352 7.6149 10.598 7.17773 10.0586 7.17773ZM15.918 8.1543V16.9434C15.918 17.4828 15.4808 17.9199 14.9414 17.9199C14.402 17.9199 13.9648 17.4828 13.9648 16.9434V8.1543C13.9648 7.6149 14.402 7.17773 14.9414 7.17773C15.4808 7.17773 15.918 7.6149 15.918 8.1543ZM18.9678 1.80149C19.4292 2.08092 19.5766 2.68135 19.2972 3.14274C19.0178 3.60413 18.4172 3.75156 17.956 3.47195C16.3157 2.47841 14.4291 1.95312 12.5 1.95312C6.68449 1.95312 1.95312 6.68449 1.95312 12.5C1.95312 18.3155 6.68449 23.0469 12.5 23.0469C18.3155 23.0469 23.0469 18.3155 23.0469 12.5C23.0469 10.4204 22.4285 8.39634 21.2585 6.64635C20.9587 6.19793 21.0793 5.59139 21.5277 5.29175C21.9759 4.99191 22.5824 5.11246 22.8823 5.56068C24.2676 7.63302 25 10.0327 25 12.5C25 15.8388 23.6998 18.9779 21.3388 21.3388C18.9779 23.6998 15.8388 25 12.5 25C9.16119 25 6.02207 23.6998 3.66116 21.3388C1.30024 18.9779 0 15.8388 0 12.5C0 9.16119 1.30024 6.02207 3.66116 3.66116C6.02207 1.30024 9.16119 0 12.5 0C14.7858 0 17.0223 0.62294 18.9678 1.80149Z" fill="white"/>
</svg>
